<?xml version="1.0" encoding="utf-8"?>
<!-- Generator: Adobe Illustrator 22.0.1, SVG Export Plug-In . SVG Version: 6.00 Build 0)  -->
<svg width="24" height="24" version="1.1" id="Capa_1" xmlns="http://www.w3.org/2000/svg" xmlns:xlink="http://www.w3.org/1999/xlink" x="0px" y="0px"
	 viewBox="0 0 24 24" style="enable-background:new 0 0 24 24;" xml:space="preserve">
<style type="text/css">
	.st0{fill:none;}
	.st1{fill:#666666;}
</style>
<g>
	<path class="st0" d="M24,0L0,0l0,24h24V0z"/>
	<path class="st1" d="M18.4,15.9c0.1,0.2,0.4,0.2,0.6,0c0.1-0.1,0.1-0.2,0.1-0.3c0-0.1,0-0.2-0.1-0.3l-6.7-7.3
		c-0.2-0.2-0.4-0.2-0.6,0c0,0,0,0,0,0L5,15.4c-0.1,0.2-0.1,0.4,0,0.6c0,0,0,0,0,0c0.2,0.1,0.4,0.1,0.6,0l6.3-7L18.4,15.9L18.4,15.9z
		"/>
</g>
</svg>
