<?xml version="1.0" encoding="utf-8"?>
<!-- Generator: Adobe Illustrator 22.0.1, SVG Export Plug-In . SVG Version: 6.00 Build 0)  -->
<svg version="1.1" id="Capa_1" xmlns="http://www.w3.org/2000/svg" xmlns:xlink="http://www.w3.org/1999/xlink" x="0px" y="0px"
	 viewBox="0 0 24 24" style="enable-background:new 0 0 24 24;" xml:space="preserve">
<style type="text/css">
	.st0{fill:none;}
	.st1{fill:#FFFFFF;}
	.st2{fill:#FD560A;}
</style>
<g>
	<path class="st0" d="M4,20h16V4H4V20z"/>
	<path class="st1" d="M12,5c-3.9,0-7,3.1-7,7s3.1,7,7,7s7-3.1,7-7S15.8,5,12,5"/>
	<path class="st2" d="M12,17.8c-3.2,0-5.8-2.6-5.8-5.8c0-3.2,2.6-5.8,5.8-5.8c3.2,0,5.8,2.6,5.8,5.8C17.8,15.2,15.2,17.8,12,17.8
		 M12,5.8c-3.4,0-6.2,2.8-6.2,6.2c0,3.4,2.8,6.2,6.2,6.2c3.4,0,6.2-2.8,6.2-6.2C18.2,8.6,15.4,5.8,12,5.8"/>
	<path class="st2" d="M12,8.1c-2.1,0-3.8,1.7-3.8,3.8s1.7,3.8,3.8,3.8c0,0,0,0,0,0c2.1,0,3.8-1.7,3.8-3.8S14.1,8.1,12,8.1"/>
</g>
</svg>
